<?xml version="1.0" encoding="UTF-8"?>
<svg id="Logo" xmlns="http://www.w3.org/2000/svg" version="1.1" viewBox="0 0 152 152">
  <!-- Generator: Adobe Illustrator 29.6.0, SVG Export Plug-In . SVG Version: 2.1.1 Build 207)  -->
  <defs>
    <style>
      .st0 {
        fill: #fff;
      }

      .st1 {
        fill: #942f4b;
      }
    </style>
  </defs>
  <path class="st0" d="M76.1,149.16h0c-18.59-23.66-43.39-41.67-71.63-52.04h0C21.22,72.13,30.7,42.98,31.83,12.91h0c28.94,8.21,59.6,8.21,88.54,0h0c1.13,30.06,10.61,59.22,27.36,84.21h0c-28.24,10.37-53.04,28.39-71.63,52.04h0Z"/>
  <path class="st1" d="M117.725,79.28l-.448-2.044c-.287-1.311-.74-2.545-1.346-3.669-.604-1.123-1.402-2.173-2.371-3.122-1.005-.982-1.965-1.645-2.931-2.024-1.781-.709-4.044-.792-6.291-.05-1.043.343-2.092.953-3.119,1.813-.999.836-1.899,1.975-2.674,3.382-.9,1.628-1.465,3.243-1.674,4.792l-2.724,18.861c-1.091-.308-1.682-.631-1.987-.863-.854-.675-1.562-1.678-2.105-2.976-.554-1.35-.835-3.052-.835-5.061,0-1.308.133-2.755.397-4.308.256-1.565.634-3.102,1.114-4.545,1.126-3.146,2.906-5.523,5.211-7.021.707-.368,1.433-.747,2.18-1.125l.45-.228.471-2.794h-1.183c-1.06,0-2.202.147-3.396.438-1.177.286-2.345.75-3.49,1.39-.177.104-.353.208-.524.312-.794.204-2.241.932-5.471,3.969l-.214.193c-3.969,3.634-6.984,6.107-9.228,7.565-2.158,1.433-4.083,2.204-5.72,2.294-1.479.085-2.721-.269-3.822-1.062-1.125-.812-1.967-1.997-2.5-3.517-.237-.684-.387-1.368-.458-2.08-.053-.606-.048-1.257.015-1.939,3.076-1.919,6.06-4.238,8.868-6.89,2.27-2.099,4.526-4.486,6.733-7.123.067.749.2,1.429.403,2.068.569,1.81,1.617,3.239,3.113,4.248,1.471,1,3.234,1.479,5.221,1.422,4.013-.119,7.842-2.362,11.694-6.842,3.51-3.913,5.583-8.299,6.177-13.055.649.384,1.164.779,1.538,1.179.572.614.993,1.449,1.251,2.484.415,1.638.241,3.253-.534,4.948-.77,1.733-2.166,3.482-4.192,5.239-.311.301-.762.685-1.325,1.128-.931.701-1.844,1.552-1.575,2.491.113.521.542.806.681.898.345.231.688.335.956.31.431,0,.949-.173,2.33-1.058.981-.63,1.955-1.404,2.885-2.293,1.907-1.791,3.264-3.738,4.03-5.784.802-2.108.931-4.284.386-6.467-.442-1.771-1.271-3.273-2.467-4.468-1.07-1.062-2.441-1.888-4.083-2.461-.011-.065-.021-.132-.032-.203-.058-.37-.106-.602-.13-.694-.672-2.622-2.104-4.655-4.259-6.043-2.104-1.349-4.866-2.065-8.213-2.128-4.902-.072-10.197,1.458-15.703,4.587-5.435,3.188-10.253,7.647-14.34,13.28-2.338,3.435-4.005,6.912-4.959,10.344-.84,3.143-1.099,6.255-.771,9.265-.628.187-1.217.334-1.759.443-.722.145-1.463.232-2.203.262-2.608.102-5.004-.654-7.294-2.311-2.303-1.668-4.01-3.916-5.073-6.679-1.581-4.12-.988-8.262,1.752-12.293,2.897-4.09,7.505-7.019,13.697-8.704l2.776-.756-2.646-1.129c-.172-.073-.361-.117-.552-.127-1.853-.274-3.064-.402-3.803-.402-2.844-.011-5.612.62-8.198,1.907-2.615,1.318-4.771,3.168-6.417,5.51-1.523,2.237-2.424,4.732-2.679,7.422-.243,2.682.159,5.392,1.194,8.053,1.536,3.949,4.007,7.178,7.345,9.597,3.332,2.417,6.943,3.579,10.707,3.42.811-.031,1.622-.117,2.399-.252.466-.074.958-.173,1.485-.296.018.05.034.09.046.118l.339.938c1.017,2.836,2.662,5.103,4.888,6.736,2.242,1.654,4.74,2.413,7.429,2.264,2.131-.117,4.443-.881,6.863-2.265,1.357-.76,2.752-1.712,4.171-2.848-.096.435-.174.872-.235,1.312-2.376,6.508-4.782,11.277-7.365,14.593-3.103,4.156-6.854,6.378-11.469,6.793-3.915.354-7.496-.5-10.95-2.608-3.437-2.09-5.883-4.924-7.271-8.426-1.131-2.842-1.148-5.245-.056-7.341,1.068-2.017,2.83-3.057,5.383-3.18,1.735-.083,3.28.288,4.613,1.094,1.324.807,2.227,1.906,2.762,3.362.688,1.867.462,3.679-.696,5.545-1.156,1.899-3.054,3.314-5.641,4.204l-3.044,1.047,3.102.862c.728.202,1.396.336,2.043.409.65.075,1.289.09,1.9.044,2.942-.224,5.161-1.572,6.593-4.005,1.429-2.396,1.622-5.086.571-7.995-.885-2.426-2.575-4.426-5.023-5.947-2.45-1.515-5.084-2.216-7.832-2.089-3.838.177-6.575,1.723-8.137,4.601-1.508,2.84-1.483,6.252.074,10.138,1.819,4.575,4.951,8.213,9.308,10.811,4.279,2.545,9.075,3.59,14.252,3.116,4.045-.372,7.742-1.64,10.98-3.765,3.271-2.104,5.837-4.845,7.627-8.144.19-.352.385-.744.583-1.185.927,1.329,2.116,2.44,3.552,3.316,1.393.863,3.544,1.601,6.56,2.245l-2.408,13.405h5.961l2.386-13.282c2.106-.158,4.418-.901,6.887-2.214,2.115-1.12,3.899-2.389,5.301-3.769,1.401-1.369,2.618-3.024,3.722-5.062,1.072-1.995,1.79-4.047,2.141-6.128.122-.762.212-1.332.253-1.72.045-.423.066-.99.066-1.735,0-.646-.036-1.297-.107-1.95l.142.07ZM110.08,82.68c0,1.21-.122,2.499-.364,3.831l-.113.627c-.248,1.231-.409,1.59-.457,1.677l-.051.105c-.637,1.55-1.26,2.772-1.848,3.632-.232.337-.751.907-1.594,1.751-1.273,1.31-2.723,2.25-4.308,2.797-.189.034-.553.107-1.325.267l2.144-15.761c.11-1.035.375-2.201.808-3.562.4-1.252.818-2.158,1.213-2.658.238-.274.507-.483.821-.641.276-.138.602-.205.994-.205.127,0,.42.037.96.288.219.101.691.417,1.399,1.398.59.816.982,1.584,1.199,2.348.245.861.389,1.477.439,1.88.055.439.082,1.188.082,2.227ZM84.186,65.214c-.803-.61-1.322-1.332-1.591-2.211-.487-1.569-.433-3.14.164-4.798.622-1.693,1.817-3.369,3.559-4.988,1.922-1.819,3.969-3.197,6.079-4.094,2.048-.858,4.217-1.292,6.452-1.292.582.002,1.128.04,1.711.129.326.049.655.111.986.185-.228,4.269-1.941,8.275-5.102,11.921l-.013.015c-3.282,3.941-6.49,5.898-9.809,5.98-.856.034-1.657-.252-2.438-.846ZM100.021,44.7c-.654-.092-1.216-.127-1.742-.13-6.154,0-12.876,3.977-19.996,11.838-1.409,1.639-2.478,2.877-3.203,3.712-2.31,2.703-4.61,5.083-6.841,7.079-1.517,1.375-2.996,2.565-4.418,3.555.567-2.667,1.344-5.19,2.321-7.524,1.276-2.962,2.956-5.85,4.99-8.581,3.662-4.893,7.461-8.634,11.284-11.114,3.753-2.375,7.373-3.551,10.628-3.495,2.244.037,4.105.524,5.531,1.448,1.273.83,2.12,1.941,2.579,3.387-.463-.075-.841-.133-1.133-.175Z"/>
</svg>