<?xml version="1.0" encoding="UTF-8" standalone="no"?>
<svg
id="Logo"
viewBox="0 0 216 216"
version="1.1"
sodipodi:docname="gephi-desktop-logo.svg"
inkscape:version="1.2.2 (b0a8486541, 2022-12-01)"
xmlns:inkscape="http://www.inkscape.org/namespaces/inkscape"
xmlns:sodipodi="http://sodipodi.sourceforge.net/DTD/sodipodi-0.dtd"
xmlns="http://www.w3.org/2000/svg"
xmlns:svg="http://www.w3.org/2000/svg">
<sodipodi:namedview
        id="namedview260"
        pagecolor="#ffffff"
        bordercolor="#000000"
        borderopacity="0.25"
        inkscape:showpageshadow="2"
        inkscape:pageopacity="0.0"
        inkscape:pagecheckerboard="0"
        inkscape:deskcolor="#d1d1d1"
        showgrid="false"
        inkscape:zoom="2.939731"
        inkscape:cx="60.889926"
        inkscape:cy="105.96208"
        inkscape:window-width="2558"
        inkscape:window-height="1394"
        inkscape:window-x="0"
        inkscape:window-y="20"
        inkscape:window-maximized="1"
        inkscape:current-layer="Logo" />
<defs
        id="defs253">
  <style
          id="style246">
    .cls-1 {
    fill: url(#linear-gradient);
    }

    .cls-2 {
    fill: #fff;
    }
  </style>
  <linearGradient id="linear-gradient" x1="59.8" y1="71.61" x2="136.08" y2="119.37" gradientUnits="userSpaceOnUse">
    <stop offset="0" stop-color="#9ca6a4"/>
    <stop offset="1" stop-color="#3a414c"/>
  </linearGradient>
</defs>
<path
        class="cls-2"
        d="m 65.985857,9.9670019 h 84.028293 v 0 c 5.01057,0.031125 7.53142,2.0073431 11.95068,4.5593121 v 0 c 4.41928,2.551971 7.39138,3.750152 9.9278,8.060491 v 0 c 0,0 42.01413,72.777831 42.01413,72.777831 v 0 c 2.47417,4.357022 2.02291,7.531424 2.02291,12.635364 v 0 c 0,5.10394 0.45126,8.27834 -2.02291,12.63536 v 0 c 0,0 -42.01413,72.77783 -42.01413,72.77783 v 0 c -2.53642,4.32591 -5.50852,5.50852 -9.9278,8.06049 v 0 c -4.41926,2.55197 -6.94011,4.52819 -11.95068,4.55932 v 0 c 0,0 -84.028293,0 -84.028293,0 v 0 c -5.010575,-0.0311 -7.531421,-2.00735 -11.950688,-4.55932 v 0 c -4.419265,-2.55197 -7.391376,-3.75015 -9.927786,-8.06049 v 0 c 0,0 -42.0141414,-72.77783 -42.0141414,-72.77783 v 0 C -0.38092552,116.27834 0.07033762,113.10394 0.07033762,108 v 0 c 0,-5.10394 -0.45126314,-8.278342 2.02290398,-12.635364 v 0 c 0,0 42.0141414,-72.777831 42.0141414,-72.777831 v 0 c 2.53641,-4.3259 5.508521,-5.50852 9.927786,-8.060491 v 0 c 4.419267,-2.551969 6.940113,-4.5281903 11.950688,-4.5593121 z"
        id="path255"
        style="stroke-width:1.55608" />
<path
        class="cls-1"
        d="m 170.74509,110.38323 c -0.42014,-1.91398 -1.07369,-3.68791 -1.9451,-5.30624 -0.8714,-1.61831 -2.00734,-3.11216 -3.40781,-4.4815 -1.40047,-1.369352 -2.7387,-2.302998 -4.04581,-2.816509 -1.29155,-0.513503 -2.75425,-0.778037 -4.38814,-0.778037 -1.4316,0 -2.87874,0.248976 -4.34146,0.731353 -1.46272,0.482386 -2.90987,1.338232 -4.34146,2.536413 -1.4316,1.19818 -2.69202,2.81651 -3.79684,4.82385 -1.29154,2.33411 -2.11626,4.63711 -2.42748,6.92455 l -4.48151,31.04378 c -2.45861,-0.51351 -4.24809,-1.19818 -5.35291,-2.03847 -1.55608,-1.22929 -2.80094,-2.98767 -3.75016,-5.25954 -0.93364,-2.27188 -1.41603,-5.08838 -1.41603,-8.46508 0,-2.06958 0.20229,-4.38813 0.638,-6.95566 0.42014,-2.56754 1.02701,-5.01058 1.80505,-7.3447 1.88286,-5.25955 4.8394,-9.18087 8.85409,-11.77953 1.10482,-0.57574 2.24075,-1.16705 3.40781,-1.758362 l 0.29566,-1.758367 c -1.55608,0 -3.18997,0.217851 -4.91721,0.637995 -1.72725,0.420135 -3.39226,1.089255 -5.01057,1.991774 -0.34235,0.20229 -0.68468,0.40459 -1.01146,0.60687 -1.47827,0.26454 -4.15473,2.19408 -8.06049,5.86642 l -0.32678,0.29565 c -6.08427,5.57077 -10.90811,9.55434 -14.54934,11.91957 -3.6101,2.39636 -6.83119,3.67236 -9.678812,3.82796 -2.614213,0.14005 -4.932766,-0.49795 -6.94011,-1.9451 -2.007343,-1.44716 -3.501185,-3.51674 -4.450389,-6.22431 -0.404577,-1.16707 -0.669112,-2.36525 -0.793605,-3.61011 -0.108925,-1.24487 -0.07779,-2.61422 0.108926,-4.07693 4.995017,-3.04992 9.7255,-6.7067 14.20701,-10.939231 4.54375,-4.201422 8.96302,-9.056388 13.28891,-14.580466 -0.23341,1.602758 -0.31121,2.972106 -0.23341,4.123613 0.0778,1.151497 0.26454,2.240753 0.59131,3.267767 0.77804,2.474162 2.17852,4.403696 4.23254,5.788612 2.03846,1.384907 4.43483,2.022902 7.20465,1.945102 5.77305,-0.171177 11.43718,-3.563427 17.08575,-10.130077 5.80417,-6.473291 8.96301,-13.693503 9.42984,-21.722868 2.16294,0.995888 3.79683,2.069585 4.87053,3.221082 1.07369,1.151498 1.85173,2.676456 2.31856,4.543748 0.73135,2.894307 0.42013,5.788622 -0.91809,8.714045 -1.30711,2.940989 -3.6101,5.819738 -6.86231,8.636244 -0.52907,0.513502 -1.26042,1.135939 -2.20964,1.882851 -1.3849,1.04258 -2.00734,1.805059 -1.86729,2.303003 0.0311,0.140042 0.17117,0.280093 0.40458,0.435703 0.23342,0.155609 0.4357,0.233409 0.62243,0.217851 0.42015,0 1.35379,-0.482386 2.78538,-1.400474 1.43159,-0.918088 2.86319,-2.054028 4.26366,-3.392251 2.80095,-2.62978 4.76161,-5.430719 5.88198,-8.418393 1.13594,-2.987673 1.32267,-6.022022 0.54463,-9.134188 -0.62243,-2.48972 -1.75837,-4.559306 -3.42338,-6.224315 -1.68056,-1.664999 -3.87464,-2.909864 -6.59777,-3.734585 -0.0934,-0.357902 -0.17117,-0.778046 -0.24897,-1.27599 -0.0778,-0.497944 -0.14005,-0.809163 -0.17117,-0.933646 -0.94921,-3.703469 -2.94099,-6.535534 -5.95979,-8.480633 -3.03436,-1.945099 -7.03348,-2.972112 -11.96625,-3.065476 -7.29801,-0.124487 -15.21845,2.147389 -23.62128,6.924553 -8.27834,4.854965 -15.560794,11.577233 -21.816234,20.19791 -3.578985,5.259552 -6.068705,10.472411 -7.500305,15.623037 -1.384906,5.181743 -1.711683,10.223442 -0.995888,15.109522 -1.509399,0.49795 -2.894306,0.87141 -4.139171,1.12039 -1.244865,0.24896 -2.474162,0.38901 -3.672343,0.4357 -4.388148,0.17116 -8.496193,-1.12038 -12.324155,-3.89021 -3.843511,-2.78538 -6.660017,-6.488845 -8.433947,-11.094835 -2.645334,-6.893435 -1.711687,-13.786861 2.909869,-20.586929 4.761599,-6.722268 12.168537,-11.421625 22.174129,-14.144764 -0.108925,-0.04668 -0.248967,-0.0778 -0.389018,-0.0778 -2.723139,-0.404581 -4.652674,-0.622432 -5.788613,-0.622432 -4.170296,-0.03112 -8.200542,0.886965 -12.044052,2.800943 -3.827962,1.929535 -6.97124,4.60599 -9.398724,8.060491 -2.225193,3.267767 -3.5323,6.877868 -3.905759,10.814746 -0.357898,3.952446 0.233412,7.904882 1.758369,11.826202 2.287437,5.88198 5.913101,10.628018 10.89256,14.238128 4.932766,3.57898 10.145635,5.24399 15.68528,5.02614 1.198181,-0.0467 2.380795,-0.17117 3.547859,-0.37346 1.167056,-0.18673 2.396363,-0.46682 3.672344,-0.80917 0.124484,0.34235 0.217851,0.74692 0.311218,1.24487 0.04666,0.15561 0.09337,0.24897 0.108926,0.29566 l 0.529069,1.4627 c 1.478274,4.12362 3.843511,7.39138 7.064594,9.75663 3.205525,2.36524 6.722268,3.43893 10.550221,3.22108 3.112161,-0.17116 6.442161,-1.29155 10.005591,-3.33001 3.42338,-1.91398 6.92455,-4.59044 10.5191,-7.99824 -1.05814,2.33412 -1.77394,4.77715 -2.11627,7.34469 -3.68791,10.13008 -7.56255,17.91047 -11.73284,23.26339 -5.0417,6.75338 -11.328255,10.50353 -18.953043,11.1882 -6.379934,0.57576 -12.355272,-0.84028 -17.988284,-4.27921 -5.679687,-3.4545 -9.663249,-8.09162 -11.950685,-13.86467 -1.913977,-4.80828 -1.929544,-9.05638 -0.01552,-12.72873 1.929534,-3.64123 5.166175,-5.55521 9.678807,-5.77306 3.003231,-0.14004 5.695254,0.49795 8.060491,1.92955 2.349678,1.43159 3.999129,3.43893 4.948333,6.02202 1.244865,3.37669 0.824721,6.69114 -1.213739,9.97447 -2.007344,3.29889 -5.212869,5.69525 -9.601007,7.20465 1.011446,0.28009 1.991776,0.48239 2.94099,0.59131 0.949204,0.10893 1.836167,0.12448 2.660888,0.0623 4.076929,-0.31122 7.080161,-2.14739 9.040821,-5.4774 1.976227,-3.31445 2.240762,-7.01792 0.762479,-11.11041 -1.260423,-3.45449 -3.641218,-6.271 -7.17352,-8.46507 -3.547859,-2.19408 -7.313579,-3.20552 -11.297141,-3.0188 -5.399594,0.24898 -9.19643,2.34968 -11.359374,6.33325 -2.131827,4.01468 -2.069585,8.83853 0.186726,14.47153 2.723139,6.84676 7.360254,12.19967 13.833545,16.05874 6.41105,3.8124 13.475652,5.35291 21.240483,4.63712 6.084273,-0.56019 11.54611,-2.44305 16.38551,-5.61745 4.8861,-3.14328 8.66736,-7.17352 11.34382,-12.10629 0.68468,-1.26042 1.35379,-2.81651 2.03847,-4.63712 1.43159,3.11216 3.62566,5.57077 6.58222,7.37582 2.20962,1.36934 5.94422,2.56753 11.1882,3.59454 l -3.68794,20.52466 h 6.11539 c 0,0 3.70347,-20.61805 3.70347,-20.61805 3.37669,0 7.14241,-1.10482 11.29713,-3.31445 3.1744,-1.68056 5.80418,-3.54786 7.88933,-5.60188 2.08514,-2.03847 3.90576,-4.54376 5.50852,-7.50031 1.5872,-2.95655 2.64534,-5.95978 3.15884,-9.00969 0.18672,-1.16707 0.32678,-2.03847 0.38902,-2.62978 0.0623,-0.59132 0.0934,-1.43159 0.0934,-2.53641 0,-1.9451 -0.21785,-3.87463 -0.63799,-5.78862 z M 141.02398,84.365579 c -5.33736,6.41105 -10.76807,9.7255 -16.41664,9.865542 -1.69613,0.04666 -3.28333,-0.497944 -4.77716,-1.633883 -1.49384,-1.135939 -2.50529,-2.536404 -3.0188,-4.216971 -0.85584,-2.754265 -0.76248,-5.570771 0.2801,-8.465077 1.05813,-2.878748 3.03435,-5.664129 5.92866,-8.356142 3.1744,-3.003232 6.48885,-5.212869 9.92779,-6.675584 3.45449,-1.447149 7.04903,-2.147386 10.7525,-2.131828 0.93365,0 1.86729,0.07779 2.78538,0.217851 0.91809,0.140051 1.88286,0.342335 2.89431,0.622437 -0.0778,7.531422 -2.87874,14.455973 -8.35614,20.773655 z m -49.763422,3.298892 c 2.038469,-4.730482 4.683799,-9.289797 7.951565,-13.677945 5.881977,-7.858198 11.904007,-13.740178 17.972717,-17.677057 6.14651,-3.890199 11.96625,-5.773054 17.39697,-5.679689 3.8124,0.06224 6.95567,0.902525 9.42984,2.505287 2.4586,1.602762 4.07693,3.859077 4.83941,6.768947 l 0.45126,1.742808 c -1.86729,-0.326776 -3.23664,-0.544627 -4.10805,-0.669111 -0.8714,-0.124493 -1.64945,-0.186735 -2.34968,-0.186735 -9.0097,-0.06227 -19.15533,5.819738 -30.07902,17.879349 -2.19406,2.551972 -3.85907,4.481515 -4.97945,5.773054 -3.65678,4.279223 -7.25132,7.99825 -10.783624,11.157091 -3.501185,3.174408 -6.86231,5.72637 -10.114518,7.64035 0.918088,-5.617449 2.380804,-10.81475 4.37258,-15.576349 z m 70.786052,37.065809 c -0.38902,2.14739 -0.74692,3.50117 -1.0737,4.09248 -1.04257,2.53642 -2.05402,4.51263 -3.03435,5.94422 -0.45127,0.65356 -1.33823,1.61833 -2.64534,2.92544 -2.20963,2.27187 -4.69935,3.85907 -7.42249,4.77716 -0.0623,0 -1.49384,0.29565 -4.29478,0.87141 l 3.62566,-26.65565 c 0.18673,-1.75836 0.63799,-3.70347 1.32267,-5.85085 0.68467,-2.14739 1.41603,-3.70347 2.19407,-4.6838 0.5135,-0.59131 1.10481,-1.04257 1.75837,-1.36935 0.65355,-0.32678 1.40047,-0.48239 2.24075,-0.48239 0.59131,0 1.30711,0.2023 2.1474,0.59132 0.84027,0.38901 1.77392,1.27598 2.78538,2.67645 1.01145,1.40048 1.71168,2.76982 2.10071,4.13917 0.38902,1.36935 0.63798,2.41192 0.73135,3.15884 0.0934,0.74692 0.14005,1.96066 0.14005,3.65679 0,2.00734 -0.20229,4.09249 -0.59131,6.23988 z"
        id="path257"
        style="fill:url(#linear-gradient);stroke-width:1.55608" />
</svg>
