<?xml version="1.0" encoding="UTF-8" standalone="no"?>
<svg
        id="Logo"
        viewBox="0 0 216 216"
        version="1.1"
        sodipodi:docname="gephi-lite-logo.svg"
        inkscape:version="1.2.2 (b0a8486541, 2022-12-01)"
        xmlns:inkscape="http://www.inkscape.org/namespaces/inkscape"
        xmlns:sodipodi="http://sodipodi.sourceforge.net/DTD/sodipodi-0.dtd"
        xmlns="http://www.w3.org/2000/svg"
        xmlns:svg="http://www.w3.org/2000/svg">
  <sodipodi:namedview
          id="namedview11"
          pagecolor="#ffffff"
          bordercolor="#000000"
          borderopacity="0.25"
          inkscape:showpageshadow="2"
          inkscape:pageopacity="0.0"
          inkscape:pagecheckerboard="0"
          inkscape:deskcolor="#d1d1d1"
          showgrid="false"
          inkscape:zoom="4.16"
          inkscape:cx="107.93269"
          inkscape:cy="108.29327"
          inkscape:window-width="2558"
          inkscape:window-height="1394"
          inkscape:window-x="0"
          inkscape:window-y="20"
          inkscape:window-maximized="1"
          inkscape:current-layer="Logo" />
  <defs
          id="defs4">
    <style
            id="style2">
      .cls-1 {
      fill: #01799e;
      }

      .cls-2 {
      fill: #fff;
      }
    </style>
  </defs>
  <path
          class="cls-2"
          d="M 192.03286,179.89714 C 145.73,186.49714 77.19286,199.93714 0.05,216 8.587143,153.82286 21.924286,90.10286 37.747143,25.611429 98.38143,12.445714 157.81571,3.891429 216.05,0 204.08429,57.70286 196.28429,117.78857 192.03286,179.89714 Z"
          id="path6"
          style="stroke-width:1.71429" />
  <path
          class="cls-1"
          d="m 177.13571,110.62286 c -0.46285,-2.10857 -1.18285,-4.06286 -2.14285,-5.84572 -0.96,-1.78285 -2.21143,-3.42857 -3.75429,-4.93714 -1.54286,-1.50857 -3.01714,-2.53714 -4.45714,-3.10286 -1.42286,-0.56571 -3.03429,-0.85714 -4.83429,-0.85714 -1.57714,0 -3.17143,0.27429 -4.78285,0.80571 -1.61143,0.53143 -3.20572,1.47429 -4.78286,2.79429 -1.57714,1.32 -2.96572,3.10286 -4.18286,5.31429 -1.42286,2.57142 -2.33143,5.10857 -2.67428,7.62857 l -4.93715,34.2 c -2.70857,-0.56572 -4.68,-1.32 -5.89714,-2.24572 -1.71429,-1.35428 -3.08571,-3.29143 -4.13143,-5.79428 -1.02857,-2.50286 -1.56,-5.60572 -1.56,-9.32572 0,-2.28 0.22286,-4.83428 0.70286,-7.66285 0.46286,-2.82858 1.13143,-5.52 1.98857,-8.09143 2.07429,-5.79429 5.33143,-10.11429 9.75429,-12.97715 1.21714,-0.63428 2.46857,-1.28571 3.75428,-1.93714 l 0.32572,-1.93714 c -1.71429,0 -3.51429,0.24 -5.41715,0.70286 -1.90285,0.46285 -3.73714,1.2 -5.52,2.19428 -0.37714,0.22286 -0.75428,0.44572 -1.11428,0.66857 -1.62857,0.29143 -4.57715,2.41715 -8.88,6.46286 l -0.36,0.32571 c -6.70286,6.13715 -12.01715,10.52572 -16.02857,13.13143 -3.97715,2.64 -7.52572,4.04572 -10.66286,4.21715 -2.88,0.15428 -5.43429,-0.54858 -7.64572,-2.14286 -2.21142,-1.59429 -3.85714,-3.87429 -4.90285,-6.85714 -0.44572,-1.28572 -0.73715,-2.60572 -0.87429,-3.97715 -0.12,-1.37143 -0.0857,-2.88 0.12,-4.49143 5.50286,-3.36 10.71429,-7.38857 15.65143,-12.05142 5.00571,-4.62858 9.87429,-9.97715 14.64,-16.06286 -0.25714,1.76571 -0.34286,3.27428 -0.25714,4.54286 0.0857,1.26857 0.29143,2.46857 0.65143,3.6 0.85714,2.72571 2.4,4.85142 4.66285,6.37714 2.24572,1.52571 4.88572,2.22857 7.93715,2.14286 6.36,-0.18858 12.6,-3.92572 18.82285,-11.16 6.39429,-7.13143 9.87429,-15.08572 10.38857,-23.93143 2.38286,1.09714 4.18286,2.28 5.36572,3.54857 1.18286,1.26857 2.04,2.94857 2.55428,5.00571 0.80572,3.18857 0.46286,6.37715 -1.01142,9.6 -1.44,3.24 -3.97715,6.41143 -7.56,9.51429 -0.58286,0.56571 -1.38858,1.25143 -2.43429,2.07428 -1.52571,1.14858 -2.21143,1.98858 -2.05714,2.53715 0.0343,0.15428 0.18857,0.30857 0.44571,0.48 0.25714,0.17143 0.48,0.25714 0.68572,0.24 0.46285,0 1.49142,-0.53143 3.06857,-1.54286 1.57714,-1.01143 3.15428,-2.26286 4.69714,-3.73714 3.08571,-2.89715 5.24571,-5.98286 6.48,-9.27429 1.25143,-3.29143 1.45714,-6.63428 0.6,-10.06286 -0.68571,-2.74285 -1.93714,-5.02285 -3.77143,-6.85714 C 161.94714,60.03429 159.53,58.66286 156.53,57.75429 156.42714,57.36 156.34143,56.89714 156.25571,56.34857 156.17001,55.8 156.10143,55.45714 156.06714,55.32 c -1.04571,-4.08 -3.24,-7.2 -6.56571,-9.342857 -3.34286,-2.142857 -7.74857,-3.274286 -13.18286,-3.377143 -8.04,-0.137143 -16.76571,2.365714 -26.02286,7.628571 -9.12,5.348569 -17.14285,12.754289 -24.03428,22.251429 -3.94286,5.79429 -6.68572,11.53714 -8.26286,17.21143 -1.52571,5.70857 -1.88571,11.26286 -1.09714,16.64571 -1.66286,0.54857 -3.18857,0.96 -4.56,1.23429 -1.37143,0.27428 -2.72572,0.42857 -4.04572,0.48 -4.83428,0.18857 -9.36,-1.23429 -13.577139,-4.28572 -4.234285,-3.06857 -7.337142,-7.14857 -9.291428,-12.22285 -2.914286,-7.59429 -1.885714,-15.18857 3.205714,-22.68 C 53.878571,61.45714 62.03857,56.28 73.06143,53.28 c -0.12,-0.05143 -0.27429,-0.08571 -0.42857,-0.08571 -3,-0.445715 -5.12572,-0.685715 -6.37715,-0.685715 -4.59428,-0.03428 -9.03428,0.977143 -13.268567,3.085715 -4.217143,2.12571 -7.68,5.07428 -10.354286,8.88 -2.451428,3.6 -3.891428,7.57714 -4.302857,11.91428 -0.394286,4.35429 0.257143,8.70857 1.937143,13.02857 2.52,6.48 6.514286,11.70857 12,15.68572 5.434287,3.94285 11.177147,5.77714 17.279997,5.53714 1.32,-0.0514 2.62286,-0.18857 3.90857,-0.41143 1.28572,-0.20571 2.64,-0.51428 4.04572,-0.89143 0.13714,0.37715 0.24,0.82286 0.34286,1.37143 0.0514,0.17143 0.10285,0.27429 0.12,0.32572 l 0.58285,1.61142 c 1.62857,4.54286 4.23429,8.14286 7.78286,10.74858 3.53143,2.60571 7.40571,3.78857 11.62286,3.54857 3.42857,-0.18857 7.09714,-1.42286 11.02285,-3.66857 3.77143,-2.10858 7.62858,-5.05715 11.58858,-8.81143 -1.16572,2.57143 -1.95429,5.26285 -2.33143,8.09143 -4.06286,11.16 -8.33143,19.73142 -12.92572,25.62857 -5.55428,7.44 -12.48,11.57143 -20.88,12.32571 C 77.39857,161.14286 70.81571,159.58286 64.61,155.79429 58.35286,151.98857 53.964286,146.88 51.444286,140.52 c -2.108572,-5.29714 -2.125715,-9.97714 -0.01714,-14.02286 2.125714,-4.01143 5.691424,-6.12 10.662854,-6.36 3.30857,-0.15428 6.27429,0.54857 8.88,2.12572 2.58857,1.57714 4.40571,3.78857 5.45143,6.63428 1.37143,3.72 0.90857,7.37143 -1.33714,10.98857 -2.21143,3.63429 -5.74286,6.27429 -10.57715,7.93715 1.11429,0.30857 2.19429,0.53143 3.24,0.65143 1.04572,0.12 2.02286,0.13714 2.93143,0.0686 4.49143,-0.34286 7.8,-2.36572 9.96,-6.03429 2.17714,-3.65143 2.46857,-7.73143 0.84,-12.24 -1.38857,-3.80571 -4.01143,-6.90857 -7.90286,-9.32571 -3.90857,-2.41715 -8.05714,-3.53143 -12.44571,-3.32572 -5.94857,0.27429 -10.131426,2.58857 -12.514283,6.97715 -2.348571,4.42285 -2.28,9.73714 0.205715,15.94285 3,7.54286 8.108568,13.44 15.239998,17.69143 7.06286,4.2 14.84571,5.89714 23.4,5.10857 6.70286,-0.61714 12.72,-2.69143 18.05143,-6.18857 5.38285,-3.46286 9.54857,-7.90286 12.49714,-13.33714 0.75429,-1.38857 1.49143,-3.10286 2.24571,-5.10857 1.57715,3.42857 3.99429,6.13714 7.25143,8.12571 2.43429,1.50857 6.54857,2.82857 12.32572,3.96 L 135.77,173.4 h 6.73714 c 0,0 4.08,-22.71429 4.08,-22.71429 3.72,0 7.86857,-1.21714 12.44572,-3.65142 3.49714,-1.85143 6.39428,-3.90858 8.69143,-6.17143 2.29714,-2.24572 4.30285,-5.00572 6.06857,-8.26286 1.74857,-3.25714 2.91428,-6.56571 3.48,-9.92571 0.20571,-1.28572 0.36,-2.24572 0.42857,-2.89715 0.0686,-0.65143 0.10286,-1.57714 0.10286,-2.79428 0,-2.14286 -0.24,-4.26857 -0.70286,-6.37715 z M 144.39286,81.96 c -5.88,7.06286 -11.86286,10.71429 -18.08572,10.86857 -1.86857,0.0514 -3.61714,-0.54857 -5.26285,-1.8 -1.64572,-1.25143 -2.76,-2.79428 -3.32572,-4.64571 -0.94286,-3.03429 -0.84,-6.13715 0.30857,-9.32572 1.16572,-3.17143 3.34286,-6.24 6.53143,-9.20571 3.49714,-3.30857 7.14857,-5.74286 10.93714,-7.35429 3.80572,-1.59428 7.76572,-2.36571 11.84572,-2.34857 1.02857,0 2.05714,0.0857 3.06857,0.24 1.01143,0.15429 2.07429,0.37714 3.18857,0.68572 C 153.51287,67.37143 150.42714,75 144.39286,81.96 Z M 89.57,85.59429 c 2.24571,-5.21143 5.16,-10.23429 8.76,-15.06858 6.48,-8.65714 13.11429,-15.13714 19.8,-19.474281 6.77143,-4.285715 13.18286,-6.36 19.16571,-6.257143 4.2,0.06857 7.66286,0.994285 10.38858,2.76 2.70857,1.765714 4.49142,4.251428 5.33142,7.457144 l 0.49715,1.92 c -2.05715,-0.36 -3.56572,-0.6 -4.52572,-0.73714 -0.96,-0.13715 -1.81714,-0.20572 -2.58857,-0.20572 -9.92571,-0.0686 -21.10286,6.41143 -33.13714,19.69714 -2.41714,2.81143 -4.25143,4.93715 -5.48572,6.36 -4.02857,4.71429 -7.98857,8.81143 -11.88,12.29143 -3.85714,3.49715 -7.56,6.30857 -11.14285,8.41715 1.01143,-6.18858 2.62285,-11.91429 4.81714,-17.16 z m 77.98286,40.83428 c -0.42857,2.36572 -0.82286,3.85714 -1.18286,4.50857 -1.14857,2.79429 -2.26286,4.97143 -3.34286,6.54857 -0.49714,0.72 -1.47428,1.78286 -2.91428,3.22286 -2.43429,2.50286 -5.17715,4.25143 -8.17715,5.26286 -0.0686,0 -1.64571,0.32571 -4.73142,0.96 l 3.99428,-29.36572 c 0.20572,-1.93714 0.70286,-4.08 1.45714,-6.44571 0.75429,-2.36571 1.56,-4.08 2.41715,-5.16 0.56571,-0.65143 1.21714,-1.14857 1.93714,-1.50857 0.72,-0.36 1.54286,-0.53143 2.46857,-0.53143 0.65143,0 1.44,0.22286 2.36572,0.65143 0.92571,0.42857 1.95428,1.40571 3.06857,2.94857 1.11428,1.54286 1.88571,3.05143 2.31428,4.56 0.42857,1.50857 0.70286,2.65714 0.80572,3.48 0.10285,0.82286 0.15428,2.16 0.15428,4.02857 0,2.21143 -0.22285,4.50857 -0.65143,6.87429 z"
          id="path8"
          style="stroke-width:1.71429" />
</svg>
