<svg xmlns="http://www.w3.org/2000/svg" version="1.1" viewBox="-5.0 -10.0 110.0 135.0">
 <g>
  <path d="m89.238 85.68h-78.477c-2.6289 0-4.7617-2.1406-4.7617-4.7617v-61.84c0-2.6289 2.1406-4.7617 4.7617-4.7617h78.469c2.6289 0 4.7617 2.1406 4.7617 4.7617v61.84c0 2.6289-2.1406 4.7617-4.7617 4.7617zm-78.477-68.359c-0.96875 0-1.7617 0.78906-1.7617 1.7617v61.84c0 0.96875 0.78906 1.7617 1.7617 1.7617h78.469c0.96875 0 1.7617-0.78906 1.7617-1.7617l-0.003907-61.844c0-0.96875-0.78906-1.7617-1.7617-1.7617z"/>
  <path d="m92.5 33.551h-85c-0.82812 0-1.5-0.67188-1.5-1.5s0.67188-1.5 1.5-1.5h85c0.82812 0 1.5 0.67188 1.5 1.5s-0.67188 1.5-1.5 1.5z"/>
  <path d="m19.512 24.059c0 2.5469-3.8203 2.5469-3.8203 0s3.8203-2.5469 3.8203 0"/>
  <path d="m17.602 27.48c-1.8789 0-3.4102-1.5312-3.4102-3.4102 0-1.8789 1.5312-3.4102 3.4102-3.4102 1.8789 0 3.4102 1.5312 3.4102 3.4102 0 1.8789-1.5312 3.4102-3.4102 3.4102zm0-3.832c-0.23047 0-0.41016 0.19141-0.41016 0.41016s0.19141 0.41016 0.41016 0.41016 0.41016-0.19141 0.41016-0.41016-0.19141-0.41016-0.41016-0.41016z"/>
  <path d="m29.98 24.059c0 2.5469-3.8203 2.5469-3.8203 0s3.8203-2.5469 3.8203 0"/>
  <path d="m28.07 27.48c-1.8789 0-3.4102-1.5312-3.4102-3.4102 0-1.8789 1.5312-3.4102 3.4102-3.4102 1.8789 0 3.4102 1.5312 3.4102 3.4102 0 1.8789-1.5312 3.4102-3.4102 3.4102zm0-3.832c-0.23047 0-0.41016 0.19141-0.41016 0.41016s0.19141 0.41016 0.41016 0.41016 0.41016-0.19141 0.41016-0.41016-0.19141-0.41016-0.41016-0.41016z"/>
  <path d="m40.449 24.059c0 2.5469-3.8203 2.5469-3.8203 0s3.8203-2.5469 3.8203 0"/>
  <path d="m38.539 27.48c-1.8789 0-3.4102-1.5312-3.4102-3.4102 0-1.8789 1.5312-3.4102 3.4102-3.4102 1.8789 0 3.4102 1.5312 3.4102 3.4102 0 1.8789-1.5312 3.4102-3.4102 3.4102zm0-3.832c-0.23047 0-0.41016 0.19141-0.41016 0.41016s0.19141 0.41016 0.41016 0.41016 0.41016-0.19141 0.41016-0.41016-0.19141-0.41016-0.41016-0.41016z"/>
  <path d="m35.309 67.289c-0.37891 0-0.76953-0.14844-1.0586-0.44141l-9.1094-9.1094c-0.58984-0.58984-0.58984-1.5391 0-2.1211l8.8398-8.8398c0.58984-0.58984 1.5391-0.58984 2.1211 0 0.58984 0.58984 0.58984 1.5391 0 2.1211l-7.7812 7.7812 8.0508 8.0508c0.58984 0.58984 0.58984 1.5391 0 2.1211-0.28906 0.28906-0.67969 0.44141-1.0586 0.44141z"/>
  <path d="m65.441 67.289c-0.37891 0-0.76953-0.14844-1.0586-0.44141-0.58984-0.58984-0.58984-1.5391 0-2.1211l8.0508-8.0508-7.7812-7.7812c-0.58984-0.58984-0.58984-1.5391 0-2.1211 0.58984-0.58984 1.5391-0.58984 2.1211 0l8.8398 8.8398c0.28125 0.28125 0.44141 0.66016 0.44141 1.0586s-0.16016 0.78125-0.44141 1.0586l-9.1094 9.1094c-0.28906 0.28906-0.67969 0.44141-1.0586 0.44141z"/>
  <path d="m42.73 71.039c-0.25 0-0.51172-0.058593-0.73828-0.19922-0.71875-0.41016-0.96875-1.3281-0.55859-2.0508l14.531-25.441c0.41016-0.71875 1.3281-0.96875 2.0508-0.55859 0.71875 0.41016 0.96875 1.3281 0.55859 2.0508l-14.531 25.441c-0.28125 0.48047-0.78125 0.76172-1.3008 0.76172z"/>
 </g>
<text x="0.0" y="117.5" font-size="5.0" font-weight="bold" font-family="Arbeit Regular, Helvetica, Arial-Unicode, Arial, Sans-serif" fill="#000000">Created by Muhamad Syabdah Alamsyah</text><text x="0.0" y="122.5" font-size="5.0" font-weight="bold" font-family="Arbeit Regular, Helvetica, Arial-Unicode, Arial, Sans-serif" fill="#000000">from Noun Project</text></svg>